<?xml version="1.0" encoding="utf-8"?>
<!-- Generator: Adobe Illustrator 24.1.0, SVG Export Plug-In . SVG Version: 6.00 Build 0)  -->
<svg version="1.1" id="Layer_1" xmlns="http://www.w3.org/2000/svg" xmlns:xlink="http://www.w3.org/1999/xlink" x="0px" y="0px"
	 viewBox="0 0 235 40" style="enable-background:new 0 0 235 40;" xml:space="preserve">
<style type="text/css">
	.st0{fill:#7CBF20;}
	.st1{fill:#006A11;}
</style>
<g>
	<path class="st0" d="M0.6,30.4V2.3c0-0.5,0.3-1,0.9-1.3c0.6-0.4,1.3-0.6,2-0.6c0.7,0,1.4,0.2,2.1,0.6c0.6,0.4,0.9,0.8,0.9,1.3v10.3
		h6.9c0.5,0,0.9,0.2,1.2,0.6c0.3,0.4,0.4,0.9,0.4,1.5c0,0.6-0.1,1.1-0.4,1.5c-0.3,0.4-0.7,0.6-1.2,0.6H6.5v13.5
		c0,1.3,0.3,2.3,0.9,2.9c0.6,0.6,1.6,0.8,3.1,0.8h2c0.8,0,1.4,0.2,1.9,0.7c0.4,0.5,0.7,1.1,0.7,1.8c0,0.7-0.2,1.3-0.7,1.8
		c-0.4,0.5-1.1,0.7-1.9,0.7h-2C3.8,39.2,0.6,36.3,0.6,30.4z"/>
	<path class="st0" d="M35.1,27c0.8,0,1.4,0,1.9-0.1c0.5-0.1,1-0.3,1.6-0.5c0.6-0.3,1-0.8,1.2-1.5c0.3-0.7,0.4-1.6,0.4-2.8
		c0-3-1.1-5.4-3.3-7.4s-4.8-2.9-7.9-2.9c-3.2,0-6,1.1-8.3,3.2c-2.3,2.2-3.4,4.7-3.4,7.7V28c0,3.3,1.2,6,3.7,8.1
		c2.4,2.1,5.6,3.1,9.4,3.1c2.6,0,4.8-0.5,6.6-1.4c1.8-0.9,2.7-1.9,2.7-2.8c0-0.6-0.2-1.1-0.7-1.7c-0.4-0.6-1-0.9-1.6-0.9
		c-0.3,0-1.1,0.4-2.5,1.1c-1.4,0.7-2.8,1.1-4.4,1.1c-2.2,0-3.9-0.6-5.3-1.7c-1.3-1.1-2-2.6-2-4.5V27H35.1z M23.2,21.5
		c0-1.5,0.6-2.8,1.7-3.7c1.1-1,2.5-1.5,4-1.5c1.6,0,3,0.5,4,1.5c1.1,1,1.6,2.3,1.6,3.8c0,0.7-0.1,1.1-0.4,1.3
		c-0.3,0.2-0.8,0.3-1.7,0.3h-9.3V21.5z"/>
	<path class="st0" d="M61.7,27c0.8,0,1.4,0,1.9-0.1c0.5-0.1,1-0.3,1.6-0.5c0.6-0.3,1-0.8,1.2-1.5c0.3-0.7,0.4-1.6,0.4-2.8
		c0-3-1.1-5.4-3.3-7.4s-4.8-2.9-7.9-2.9c-3.2,0-6,1.1-8.3,3.2c-2.3,2.2-3.4,4.7-3.4,7.7V28c0,3.3,1.2,6,3.7,8.1
		c2.4,2.1,5.6,3.1,9.4,3.1c2.6,0,4.8-0.5,6.6-1.4c1.8-0.9,2.7-1.9,2.7-2.8c0-0.6-0.2-1.1-0.7-1.7c-0.4-0.6-1-0.9-1.6-0.9
		c-0.3,0-1.1,0.4-2.5,1.1c-1.4,0.7-2.8,1.1-4.4,1.1c-2.2,0-3.9-0.6-5.3-1.7c-1.3-1.1-2-2.6-2-4.5V27H61.7z M49.8,21.5
		c0-1.5,0.6-2.8,1.7-3.7c1.1-1,2.5-1.5,4-1.5c1.6,0,3,0.5,4,1.5c1.1,1,1.6,2.3,1.6,3.8c0,0.7-0.1,1.1-0.4,1.3
		c-0.3,0.2-0.8,0.3-1.7,0.3h-9.3V21.5z"/>
	<path class="st1" d="M71.5,30.9V1.4c0-0.4,0.2-0.7,0.6-1C72.4,0.2,72.9,0,73.3,0c0.5,0,0.9,0.1,1.3,0.4c0.4,0.3,0.6,0.6,0.6,1v11.2
		h7.2c0.4,0,0.7,0.2,0.9,0.5c0.2,0.3,0.4,0.7,0.4,1.1s-0.1,0.8-0.4,1.1c-0.2,0.3-0.6,0.5-0.9,0.5h-7.2v15.2c0,1.8,0.4,3.1,1.2,3.8
		c0.8,0.7,2.1,1.1,4.1,1.1H82c0.5,0,0.9,0.2,1.2,0.5c0.3,0.3,0.5,0.7,0.5,1.2c0,0.5-0.2,0.9-0.5,1.2c-0.3,0.3-0.7,0.5-1.2,0.5h-1.6
		C74.5,39.2,71.5,36.4,71.5,30.9z"/>
	<path class="st1" d="M88,28.6v-15c0-0.3,0.2-0.7,0.5-1c0.4-0.3,0.8-0.4,1.3-0.4c0.4,0,0.9,0.1,1.2,0.4c0.4,0.3,0.6,0.6,0.6,1v15
		c0,1.9,0.7,3.5,2.1,5c1.4,1.5,3,2.2,4.9,2.2c1.9,0,3.6-0.7,4.9-2.2c1.4-1.5,2.1-3.1,2.1-5v-15c0-0.4,0.2-0.7,0.6-1
		c0.4-0.3,0.8-0.4,1.3-0.4c0.5,0,0.9,0.1,1.3,0.4c0.4,0.3,0.5,0.6,0.5,1v15.1c0,2.8-1.1,5.3-3.2,7.4c-2.1,2.1-4.6,3.2-7.5,3.2
		c-2.9,0-5.4-1.1-7.5-3.2C89.1,33.9,88,31.4,88,28.6z"/>
	<path class="st1" d="M114.6,37.7V14c0-0.4,0.2-0.7,0.5-1c0.3-0.3,0.8-0.4,1.3-0.4c0.5,0,0.9,0.1,1.2,0.4c0.3,0.3,0.5,0.6,0.5,1v2.8
		c0.7-1.2,1.7-2.3,3-3.2c1.3-0.9,2.8-1.3,4.5-1.3h2c0.4,0,0.7,0.2,1,0.5c0.3,0.3,0.4,0.7,0.4,1.2c0,0.5-0.1,0.9-0.4,1.2
		c-0.3,0.3-0.6,0.5-1,0.5h-2c-1.9,0-3.7,0.8-5.2,2.3c-1.5,1.5-2.2,3.5-2.2,5.9v13.8c0,0.4-0.2,0.7-0.5,1c-0.4,0.3-0.8,0.4-1.3,0.4
		c-0.5,0-0.9-0.1-1.3-0.4C114.8,38.4,114.6,38.1,114.6,37.7z"/>
	<path class="st1" d="M132.7,30.9V1.4c0-0.4,0.2-0.7,0.6-1c0.4-0.3,0.8-0.4,1.2-0.4c0.5,0,0.9,0.1,1.3,0.4c0.4,0.3,0.6,0.6,0.6,1
		v11.2h7.2c0.4,0,0.7,0.2,0.9,0.5c0.2,0.3,0.4,0.7,0.4,1.1s-0.1,0.8-0.4,1.1c-0.2,0.3-0.6,0.5-0.9,0.5h-7.2v15.2
		c0,1.8,0.4,3.1,1.2,3.8c0.8,0.7,2.1,1.1,4.1,1.1h1.6c0.5,0,0.9,0.2,1.2,0.5c0.3,0.3,0.5,0.7,0.5,1.2c0,0.5-0.2,0.9-0.5,1.2
		c-0.3,0.3-0.7,0.5-1.2,0.5h-1.6C135.7,39.2,132.7,36.4,132.7,30.9z"/>
	<path class="st1" d="M150.3,37.7V1.4c0-0.4,0.2-0.7,0.5-0.9c0.3-0.3,0.8-0.4,1.3-0.4c0.5,0,1,0.1,1.3,0.4c0.4,0.3,0.5,0.6,0.5,0.9
		v36.4c0,0.4-0.2,0.7-0.5,1c-0.4,0.3-0.8,0.4-1.3,0.4c-0.5,0-0.9-0.1-1.3-0.4C150.5,38.4,150.3,38.1,150.3,37.7z"/>
	<path class="st1" d="M175.3,26.6c0.8,0,1.4,0,1.9-0.1s0.9-0.2,1.5-0.5c0.5-0.3,0.9-0.7,1.2-1.3c0.2-0.6,0.4-1.5,0.4-2.5
		c0-2.9-1-5.4-3.1-7.3c-2.1-1.9-4.5-2.9-7.4-2.9c-3,0-5.5,1-7.6,3.1c-2.1,2-3.1,4.5-3.1,7.3v6.3c0,3.2,1.1,5.8,3.4,7.7
		c2.2,2,5.1,2.9,8.7,2.9c2.4,0,4.4-0.4,6-1.3c1.6-0.8,2.4-1.7,2.4-2.4c0-0.4-0.2-0.8-0.5-1.2c-0.3-0.4-0.7-0.6-1.1-0.6
		c-0.3,0-0.7,0.2-1.2,0.6c-0.5,0.4-1.2,0.7-2.2,1.1c-1,0.4-2.1,0.6-3.3,0.6c-2.5,0-4.6-0.7-6.2-2c-1.6-1.3-2.4-3.1-2.4-5.3v-2.1
		H175.3z M162.6,21.8c0-1.9,0.7-3.5,2.1-4.8c1.4-1.3,3-2,5-2c2,0,3.7,0.7,5,2.1c1.3,1.4,2,3.1,2,4.9c0,0.8-0.2,1.3-0.6,1.5
		c-0.4,0.2-1.1,0.4-2.2,0.4h-11.2V21.8z"/>
	<g>
		<path class="st1" d="M207.3,35.4c-0.5,1.7-9.2,7.6-6.4-6.8c-0.5-2-0.4-2.1-0.2-3.8c0,0-3.4-2.4-4.1-3c-0.4-0.4-4.8-3.9-3.6-10.2
			c0.1-0.6,0.2-1.2,0.3-1.7c4.2-12.4,12.8-11.2,17.2-6.7c2.7,2.7,2.9,5.8,3.4,8c0,0,0,0.1,0,0.1c0.1-0.1,1.9-0.8,2.7-0.9
			c5.2-0.8,8.2,1.9,8.5,2.1c0,0,0.1,0,0.1,0.1c0.8,0.6,1.5,1.3,2.1,2.1c2.7,3.9,4.5,11.3,4.3,12.5c0,0,0,0.1,0.1,0.1
			c1.8,0.6,1.7,2.8,1.3,3.3c0,0.1,0,0.1,0,0.1c0.2,0.1,0.4,0.3,0.6,0.4c0.4,0.3,2.3,3.1-1.5,4c-0.1,0-0.1,0.1-0.1,0.1
			c0.3,2.4-3.4,6-8.4,1.1c-0.1-0.1-0.1-0.1-0.2,0c-0.8,0.8-6.6,1.2-7.6,1c-0.6,0.8-1.3,1.5-2.2,2.1c-0.4,0.3-5.4,2.5-5.8-3.6
			C207.9,35.7,207.5,35.5,207.3,35.4z"/>
		<path class="st0" d="M195.8,8.5c1.1-2.8,2.9-4.5,3.7-5c2.7-1.8,4.7-1.4,5.8-1c2,0.6,7.7,2.5,6.9,13.6c0,0.5,0,1,0,1.4
			c0.1,0.6,0.2,1.3,0.4,1.9c0.1,0.4,0.1,0.7,0.1,1.1c-0.1,1.1-1.4,7.5-5.3,6.7c-1.3-0.2-3.3-1.3-5.2-2.9c-0.4-0.3-2.8-2.3-3.1-2.5
			c-0.4-0.3-0.7-0.6-1-0.9c-0.4-0.4-0.8-0.8-1.2-1.1c-0.4-0.3-1.1-1.3-1.6-2.4c-0.3-0.7-0.8-2-0.7-3.6
			C194.9,12.5,195,10.2,195.8,8.5z"/>
		<path class="st0" d="M210,32.5c0.5-1.8,0.6-2.5,1.4-2.8c2.2-1.1,5.6,2.5,4.8,4.1c-0.7,2.3-1.9,3.3-3.1,4.1
			c-0.4,0.3-3.3,1.4-3.6-1.5C209.5,35.4,209.5,34.2,210,32.5z"/>
		<path class="st0" d="M224,13.6c0.2,0.2,0.4,0.4,0.6,0.6c0,0,0,0.1,0,0.1c-0.1,0.3-0.2,0.7-0.4,1c0,0.1,0,0.1,0,0.2
			c0.7,0.7,1.3,1.4,1.8,2.1c0.4,0.5,0.7,1.1,1,1.7c0.2,0.3,0.3,0.7,0.5,1c0,0.1,0.1,0.1,0.2,0.1c0.1,0,0.2,0,0.4,0
			c0,0,0.1,0,0.1,0.1c0.1,0.2,0.1,0.3,0.2,0.5c0,0.1,0,0.1-0.1,0.1c-0.2,0-0.4,0-0.5,0c0,0-0.1,0-0.1,0.1c-0.2,0.9-0.4,1.9-0.7,2.8
			c-0.1,0.3-0.2,0.6-0.4,0.8c-0.1,0.2-0.1,0.3,0,0.5c0.4,0.6,0.8,1.3,1.1,2c0.1,0.2,0.2,0.4,0.2,0.6c0,0.1,0,0.1,0,0.1
			c-0.2,0.1-0.4,0.2-0.6,0.3c0-0.1-0.1-0.2-0.1-0.3c-0.1-0.4-0.4-0.8-0.6-1.3c-0.2-0.4-0.4-0.8-0.7-1.2c0,0,0-0.1-0.1-0.1
			c-0.1-0.2-0.2-0.3-0.5-0.3c-0.4,0-0.8,0-1.2,0c-0.7,0-1.3-0.1-2-0.1c-0.2,0-0.4,0-0.6,0c-0.2,0-0.2,0-0.3,0.2
			c-0.2,0.4-0.4,0.9-0.6,1.3c-0.2,0.3-0.4,0.6-0.5,1c-0.3,0.5-0.6,1-0.9,1.5c-0.2,0.3-0.4,0.6-0.6,0.9c0,0-0.1,0.1-0.1,0.1
			c-0.1-0.1-0.1-0.2-0.2-0.2c-0.1-0.1-0.2-0.2-0.2-0.4c0,0,0-0.1,0-0.1c0.5-0.6,0.9-1.2,1.3-1.9c0.4-0.6,0.7-1.3,1-1.9
			c0-0.1,0.1-0.2,0.1-0.3c0.1-0.1,0.1-0.2,0-0.3c-0.3-0.5-0.6-0.9-1-1.4c-0.4-0.5-0.7-1-1.1-1.5c-0.3-0.4-0.5-0.8-0.8-1.1
			c-0.1-0.2-0.3-0.3-0.6-0.3c-0.5,0-1-0.1-1.4-0.1c-0.1,0-0.1,0-0.2-0.1c0-0.2-0.1-0.3-0.1-0.5c0,0,0-0.1,0-0.1c0.2,0,0.4,0,0.6,0
			c0.3,0,0.6,0,1,0c0.1,0,0.3,0,0.4,0c0.1,0,0.1,0,0.2-0.1c0.1-0.4,0.2-0.8,0.3-1.2c0.1-0.5,0.2-1,0.3-1.5c0.1-0.3,0.1-0.7,0.1-1
			c0-0.2,0-0.4,0.1-0.6c0-0.2-0.1-0.4-0.2-0.5c-0.3-0.2-0.6-0.4-0.9-0.5c-0.7-0.3-1.4-0.5-2.1-0.8c-0.3-0.1-0.7-0.2-1.1-0.3
			c0,0,0,0,0,0c0.2-0.2,0.4-0.3,0.6-0.5c0,0,0.1,0,0.1,0c0.5,0,0.9,0.2,1.3,0.3c0.9,0.3,1.8,0.7,2.6,1.2c0,0,0.1,0,0.2,0
			c0.6-0.2,1.2-0.2,1.9-0.2c0.6,0.1,1.1,0.2,1.7,0.3c0.2,0,0.3,0.1,0.5,0.1c0.1,0,0.3,0.1,0.4,0.1c0.1,0.1,0.2,0,0.2-0.1
			c0.1-0.3,0.2-0.5,0.3-0.8C223.9,13.9,223.9,13.8,224,13.6z"/>
		<path class="st0" d="M213.2,18.2c0.1,0.1,1.9,0.9,1.3,3.9c-0.2,0.9-0.8,1.9-1.2,2.7c-0.2,0.4-0.4,0.8-0.5,1.3
			c-0.1,0.3-0.1,0.5-0.1,0.8c0,0.1,0.1,0.2,0.1,0.3c0.8,0.8,3.2,0.8,4.5,3.4c0.2,0.3,0.4,0.6,0.7,0.9c0.7,0.7,1.7,1,2.3,0.9
			c0.4,0,2,0,2.9-0.5c0.8-0.3,4.2-2.8,5-3.1c2.3-1.1,4.5-0.2,2.8,1.7c-0.2-0.4-1.7-1.8-5.1,1c-0.6,0.5-1.3,1-2,1.4
			c-0.5,0.2-2.1,1-4.4,0.6c-2-0.5-3-2.4-3.4-2.9c-0.4-0.5-1.4-1.8-3.7-2.2c-0.4-0.1-0.7-0.6-0.8-0.9c-0.1-0.6,0-1.1,0.2-1.6
			c0.2-0.5,1.4-3.1,1.6-3.9c0.1-0.6,0.2-0.9,0.2-1.4C213.6,20,213.2,18.2,213.2,18.2z"/>
		<path class="st0" d="M210,27.2c-0.1,0.6,0.1,1.1,0.5,1.6c-0.1,0.1-0.2,0.2-0.3,0.2c-0.4,0.3-0.6,0.6-0.8,1
			c-0.3,0.6-0.6,1.2-0.7,1.8c-0.1,0.5-0.2,1-0.3,1.6c0,0.2-0.1,0.4-0.1,0.6c0,0.1-0.1,0.1-0.1,0.1c-0.1,0-0.2-0.1-0.3-0.1
			c-0.3-0.2-0.7-0.3-1-0.5c-0.6-0.4-1.1-0.8-1.5-1.4c-0.4-0.5-0.8-1.1-1-1.7c-0.2-0.4-0.3-0.8-0.4-1.3c-0.1-0.4-0.1-0.7-0.1-1.1
			c0-0.1,0-0.2,0-0.3c0,0,0-0.1,0.1-0.1c0.2-0.2,0.4-0.4,0.6-0.6c0,0,0.1,0,0.1,0c0.4,0.2,0.8,0.4,1.2,0.6c0.4,0.2,0.8,0.3,1.2,0.3
			c0.7,0.1,1.4,0,2.1-0.3C209.5,27.5,209.8,27.4,210,27.2z"/>
		<path class="st0" d="M224.9,34.8c-0.1-0.9,3.8-6.2,5.2-3.1c0.2,0.4,0.3,1.6,0.3,2.3c0,0.7-0.1,1.1-0.1,1.7
			C230.1,38.6,225.2,37.3,224.9,34.8z"/>
		<path class="st0" d="M202.9,28.5c0.8,2.5,2.4,4.9,3,5.5c-0.7,2.3-2.1,2.9-2.9,2.7c-1.5-0.3-2.3-3.9-0.4-8
			C202.7,28.6,202.7,28.5,202.9,28.5z"/>
		<path class="st0" d="M224,34c-2.2,2.2-7.3,1.9-7.6,1.9c0,0-0.1,0-0.1,0c0.4-0.7,0.6-1.4,0.8-2.1c0.1,0,0.2,0.1,0.3,0.1
			c1.8,0.9,5,0.8,6.5,0.2C223.9,34,224,34,224,34C224,34,224,34,224,34z"/>
		<path class="st0" d="M201.8,26c0.1-0.2,0.1-0.4,0.2-0.6c0-0.1,0.1-0.1,0.1,0c0.3,0.2,1.4,0.8,1.3,1c-0.1,0.7-1.1,1-1.2,0.9
			C202,26.9,201.7,26.4,201.8,26z"/>
		<path class="st0" d="M231.8,31.7c0.3,0.2,0.5,0.4,0.8,0.6c0.2,0.2,0.2,0.3,0,0.5c-0.3,0.2-0.6,0.4-0.9,0.5c0,0,0,0-0.1,0
			c0-0.1,0-0.3-0.1-0.4c0-0.3-0.1-0.6-0.1-0.9c0,0,0-0.1,0-0.1C231.6,31.9,231.7,31.8,231.8,31.7z"/>
		<path class="st1" d="M205.2,13.8c0-0.4,0.1-0.8,0.4-1.2c0.2-0.3,0.5-0.5,0.9-0.5c0.4,0,0.7,0.2,0.9,0.5c0.4,0.8,0.4,1.6-0.1,2.4
			c-0.2,0.3-0.5,0.5-0.8,0.5c-0.4,0-0.7-0.2-0.9-0.5C205.2,14.6,205.1,14.3,205.2,13.8z"/>
		<path class="st1" d="M195.8,13.1c0-0.4,0.1-0.8,0.3-1.2c0.1-0.1,0.2-0.3,0.3-0.4c0.2-0.2,0.5-0.2,0.6,0c0.2,0.2,0.3,0.5,0.3,0.7
			c0.1,0.6,0,1.2-0.3,1.8c-0.1,0.1-0.1,0.2-0.2,0.3c-0.3,0.3-0.6,0.2-0.8-0.2C195.8,13.9,195.7,13.6,195.8,13.1z"/>
		<path class="st1" d="M199.7,18.1c0.1,0.1,0.2,0.1,0.3,0.1c0.4,0.2,0.8,0.3,1.2,0.3c0.6,0.1,1.1,0,1.6-0.1c0,0,0.1,0,0.1,0
			c0.1,0,0.1,0,0.1,0.1c0.2,0.6-1.2,2.9-3.3-0.3C199.7,18.2,199.7,18.2,199.7,18.1C199.7,18.1,199.7,18.1,199.7,18.1z"/>
		<path class="st1" d="M223.2,24.5c-0.6,0-1.2-0.1-1.8-0.1c-0.1,0-0.2,0-0.3-0.1c0,0-0.1,0-0.1-0.1c-0.4-0.5-0.7-1.1-1.1-1.6
			c-0.3-0.4-0.6-0.8-0.9-1.3c-0.3-0.3-0.5-0.7-0.7-1.1c0,0,0-0.1,0-0.1c0.2-0.8,0.4-1.6,0.5-2.4c0.1-0.7,0.2-1.4,0.3-2.1
			c0-0.1,0-0.3,0-0.5c0-0.1,0-0.1,0.1-0.1c0.2,0,0.5-0.1,0.7-0.1c0.8-0.1,1.5,0,2.2,0.1c0.5,0.1,1,0.3,1.5,0.5
			c0.2,0.1,0.3,0.2,0.4,0.4c0.3,0.4,0.7,0.8,1,1.2c0.4,0.6,0.8,1.2,1.2,1.8c0.3,0.5,0.6,1.1,0.9,1.7c0.1,0.2,0.1,0.4,0,0.6
			c-0.2,1-0.6,2-1,3c-0.1,0.1-0.1,0.2-0.3,0.2c-0.4,0-0.8,0-1.3,0C224,24.5,223.6,24.5,223.2,24.5z"/>
	</g>
</g>
</svg>
